<?xml version="1.0" ?><svg style="enable-background:new 0 0 32 32;" version="1.1" viewBox="0 0 32 32" xml:space="preserve" xmlns="http://www.w3.org/2000/svg" xmlns:xlink="http://www.w3.org/1999/xlink"><style type="text/css">
	.st0{display:none;}
</style><g class="st0" id="etc"/><g id="Hats"/><g id="Crewmates"/><g id="ejection"/><g id="sabotage"/><g id="Die"><path d="M25,13h-5v-2.3082c1.1907-0.5569,1.9971-1.7797,1.9971-3.1909c0-1.9385-1.5234-3.5151-3.3965-3.5151   c-0.5605,0-1.1074,0.146-1.5977,0.4204c-0.4902-0.2744-1.0371-0.4204-1.5977-0.4204c-1.873,0-3.3965,1.5767-3.3965,3.5151   c0,1.4075,0.8036,2.6296,1.9912,3.1881V13h-4H6c-0.5527,0-1,0.4478-1,1v7.1733C5,22.7319,6.2686,24,7.8271,24H9v1v1v0.1733   C9,27.7319,10.2686,29,11.8271,29h2.3457C15.7314,29,17,27.7319,17,26.1733v-2.049c0.3054-0.0172,0.6393-0.0621,1-0.1461v2.1951   C18,27.7319,19.2686,29,20.8271,29h2.3457C24.7314,29,26,27.7319,26,26.1733V25V14C26,13.4478,25.5527,13,25,13z M9,22H7.8271   C7.3711,22,7,21.6294,7,21.1733V15h2V22z M15.9805,9.9807c-0.0006-0.4744-0.3209-0.8982-0.8047-0.9846   C14.5,8.875,14.0088,8.2466,14.0088,7.501c0-0.8354,0.626-1.5151,1.3965-1.5151c0.4209,0,0.7275,0.2065,0.9111,0.3799   c0.3848,0.3643,0.9883,0.3643,1.373,0c0.1836-0.1733,0.4902-0.3799,0.9111-0.3799c0.7705,0,1.3965,0.6797,1.3965,1.5151   c0,0.7349-0.5029,1.3779-1.1709,1.4956c-0.4843,0.0852-0.8057,0.5094-0.8064,0.9846H18V13h-2V9.9807H15.9805z M14,15h1h2v1h-1   c-0.5527,0-1,0.4478-1,1v1.5c0,0.2759-0.2246,0.5-0.5,0.5S14,18.7759,14,18.5V15z M24,25v1.1733C24,26.6294,23.6289,27,23.1729,27   h-2.3457C20.3711,27,20,26.6294,20,26.1733v-2.9988c0.1816-0.1038,0.3665-0.2171,0.5547-0.3425   c0.46-0.3062,0.584-0.9272,0.2773-1.3867c-0.3057-0.4595-0.9258-0.5845-1.3867-0.2773c-2.1357,1.4238-3.4941,0.8804-3.582,0.8428   c-0.4912-0.2339-1.0791-0.0332-1.3242,0.4556c-0.2471,0.4941-0.0469,1.0947,0.4473,1.3418   c0.0042,0.0021,0.0359,0.0151,0.0482,0.0208C15.0242,23.8866,15,23.9393,15,24v2.1733C15,26.6294,14.6289,27,14.1729,27h-2.3457   C11.3711,27,11,26.6294,11,26.1733V26v-1V15h1v3.5c0,1.3784,1.1211,2.5,2.5,2.5s2.5-1.1216,2.5-2.5V18c1.1025,0,2-0.897,2-2v-1h5   V25z"/></g><g id="Die_2"/><g id="ghost"/><g id="impostor"/><g id="pets"/><g id="crewmates"/><g id="Guides"/></svg>