<?xml version="1.0" ?><svg style="enable-background:new 0 0 32 32;" version="1.1" viewBox="0 0 32 32" xml:space="preserve" xmlns="http://www.w3.org/2000/svg" xmlns:xlink="http://www.w3.org/1999/xlink"><style type="text/css">
	.st0{display:none;}
</style><g class="st0" id="etc"/><g id="Hats"/><g id="Crewmates"/><g id="ejection"><path d="M30,10.1548c-0.002-0.5811-0.2305-1.1265-0.6426-1.5352c-0.4131-0.4092-0.9551-0.6538-1.541-0.6294l-0.6104,0.0032   l1.6514-2.4783c0.4033-0.6724,0.4082-1.4897,0.0137-2.1875C28.415,2.521,27.5117,2,26.5703,2   c-0.6348,0-1.2314,0.2471-1.6797,0.6958L24.0039,3.582c-0.0537-0.1455-0.1221-0.2871-0.2061-0.4224   C23.3496,2.4336,22.5605,2,21.6885,2c-0.7432,0-1.4346,0.333-1.8984,0.9136l-2.7256,3.415   c-0.71,0.8882-1.0977,2.0034-1.0928,3.1396l0.0134,3.5599c-0.6112,0.62-0.9885,1.4714-0.985,2.4093l0.001,0.1621   c0.0029,0.9121,0.3613,1.7681,1.0088,2.4102c0.0358,0.0355,0.0784,0.0605,0.1155,0.0942c0.1561,0.7336,0.4616,1.3546,0.9392,1.8345   C17.7666,20.6431,18.7461,21,19.9727,21c0.0088,0,0.0186,0,0.0273,0h3.0039c2.5111-0.0107,4.0036-1.5056,3.9958-3.9955L27.8555,17   c1.1992-0.0063,2.1699-0.9863,2.1641-2.1846L30,10.1548z M18.4189,16.9995c-0.002,0-0.0039,0-0.0059,0   c-0.375,0-0.7285-0.1455-0.9941-0.4097c-0.2686-0.2656-0.417-0.6201-0.418-0.9995L17,15.4277   c-0.0029-0.7783,0.6279-1.4146,1.4072-1.418l2.1738-0.0093c0.0029,0,0.0049,0,0.0068,0c0.375,0,0.7285,0.1455,0.9941,0.4097   c0.2686,0.2656,0.417,0.6201,0.418,0.9995l0.001,0.1626c0.0029,0.7783-0.6279,1.4146-1.4063,1.418L18.4189,16.9995z M25,17.0039   c0.0059,1.3931-0.5938,1.9902-2,1.9961h-3.0039c-0.0373-0.0002-0.0682-0.0056-0.1045-0.0067l0.7119-0.0031   c1.8799-0.0083,3.4043-1.5449,3.3975-3.4277L24,15.4004c-0.0029-0.9121-0.3613-1.7681-1.0088-2.4102s-1.5127-0.9668-2.418-0.9897   l-2.1748,0.0093c0,0,0,0-0.001,0c-0.1425,0.0006-0.2781,0.0262-0.416,0.0439L17.9717,9.46   c-0.0029-0.6816,0.2295-1.3506,0.6553-1.8833l2.7256-3.415C21.4346,4.0591,21.5576,4,21.6885,4   c0.1738,0,0.3262,0.0786,0.4082,0.2109c0.0664,0.1069,0.0693,0.2217,0.0088,0.3418l-1,2c-0.2188,0.439-0.0879,0.9717,0.3096,1.2583   c0.3975,0.2871,0.9453,0.2422,1.292-0.104l3.5977-3.5972c0.249-0.2495,0.7031-0.0156,0.8262,0.2031   c0.1055,0.1855,0.0371,0.1333,0.0371,0.1323l-2,3C25.0586,7.6094,25,7.8027,25,8v0.8609c-0.0071,0.0487-0.0285,0.0923-0.0283,0.143   L25,16.0137V17.0039z M27.8457,15L27,15.0044V9.9945l0.8271-0.0043c0.001,0,0.001,0,0.001,0c0.0586,0,0.0986,0.0269,0.1211,0.0498   C27.9727,10.063,28,10.1021,28,10.1621l0.0195,4.6621C28.0195,14.9209,27.9414,14.9995,27.8457,15z M21,23c-0.5527,0-1,0.4478-1,1   v1c0,1.6543-1.3457,3-3,3c-1.1104,0-2.5244-0.2822-3.8535-0.7432C14.2549,26.3779,15,25.291,15,24c0-2.6631-2.5645-4-4-4   s-4,1.3369-4,4c0,1.291,0.7451,2.3779,1.8535,3.2568C7.5244,27.7178,6.1104,28,5,28H3c-0.5527,0-1,0.4478-1,1s0.4473,1,1,1h2   c1.4668,0,3.9004-0.4912,6-1.459C13.0996,29.5088,15.5332,30,17,30c2.7568,0,5-2.2432,5-5v-1C22,23.4478,21.5527,23,21,23z    M11,26.2993C9.8242,25.625,9,24.8164,9,24c0-1.3984,1.5176-2,2-2s2,0.6016,2,2C13,24.8164,12.1758,25.625,11,26.2993z"/></g><g id="sabotage"/><g id="Die"/><g id="Die_2"/><g id="ghost"/><g id="impostor"/><g id="pets"/><g id="crewmates"/><g id="Guides"/></svg>