<?xml version="1.0" ?><svg style="enable-background:new 0 0 32 32;" version="1.1" viewBox="0 0 32 32" xml:space="preserve" xmlns="http://www.w3.org/2000/svg" xmlns:xlink="http://www.w3.org/1999/xlink"><style type="text/css">
	.st0{display:none;}
</style><g class="st0" id="etc"/><g id="Hats"/><g id="Crewmates"/><g id="ejection"/><g id="sabotage"><path d="M18,15h-4c-2.7568,0-5,2.2432-5,5s2.2432,5,5,5h4c2.7568,0,5-2.2432,5-5S20.7568,15,18,15z M18,23h-4   c-1.6543,0-3-1.3457-3-3s1.3457-3,3-3h4c1.6543,0,3,1.3457,3,3S19.6543,23,18,23z M20,19c0,0.5522-0.4477,1-1,1s-1-0.4478-1-1   c0-0.5523,0.4477-1,1-1S20,18.4477,20,19z M17,19c0,0.5522-0.4473,1-1,1h-2c-0.5527,0-1-0.4478-1-1s0.4473-1,1-1h2   C16.5527,18,17,18.4478,17,19z M28.8066,6.3354c-0.3428-0.3188-0.6924-0.3491-0.8779-0.333   c-0.3525,0.0254-0.665,0.2344-0.8232,0.5503c-0.1943,0.3887-0.4395,0.6729-0.6934,0.8809   c0.1973-1.3149,0.1133-2.7217-0.6807-3.8228C24.9609,2.542,23.7061,2,22,2c-0.5527,0-1,0.4478-1,1   c0,2.5259-0.5537,2.6206-1.8906,2.8496c-0.762,0.1304-1.6998,0.292-2.5654,0.9276C15.9036,5.4335,14.7296,5,14,5   c-0.5527,0-1,0.4478-1,1c0,0.9688-0.2061,1.6543-0.5791,1.9302c-0.0635,0.0469-0.1328,0.0825-0.2041,0.1089   c0.2891-1.8691,0.0303-3.2944-0.7832-4.3354C10.5508,2.5732,9.0596,2,7,2C6.6963,2,6.4102,2.1377,6.2197,2.3745   C6.0303,2.6108,5.958,2.9209,6.0234,3.2168c1.0713,4.8193-0.2891,6.7275-1.7295,8.7476C3.166,13.5469,2,15.1826,2,18   c0,3.6919,1.4658,5.0605,3.4951,6.9556C5.6553,25.1052,5.8297,25.2709,6,25.4316V29c0,0.5522,0.4473,1,1,1h18   c0.5527,0,1-0.4478,1-1v-3.6006C28.5983,22.627,30,17.5394,30,14C30,8.1919,29.3623,6.853,28.8066,6.3354z M24,28H8v-9.3687   C8,15.5264,10.5264,13,13.6318,13h4.7363C21.4736,13,24,15.5264,24,18.6313V28z M26,21.9358v-3.3044   C26,14.4233,22.5762,11,18.3682,11h-4.7363C9.4238,11,6,14.4233,6,18.6313v4.0406C4.6747,21.3695,4,20.354,4,18   c0-2.1772,0.8906-3.4272,1.9229-4.8745c1.4297-2.0054,3.0352-4.2568,2.3018-9.0278c0.7578,0.1367,1.3047,0.4165,1.6328,0.8364   c0.5674,0.7266,0.625,2.0127,0.1729,3.8232c-0.127,0.5068,0.1582,1.0259,0.6533,1.1914c0.165,0.0542,1.6475,0.5103,2.8994-0.3911   c0.5811-0.4189,0.9854-1.0361,1.209-1.8442C14.9141,8.0063,15,8.4189,15,9c0,0.0494,0.0212,0.0917,0.0281,0.1392   c0.0105,0.0725,0.0169,0.1438,0.0428,0.2121c0.0228,0.0602,0.0593,0.11,0.0927,0.164c0.0338,0.0552,0.0626,0.111,0.1072,0.1591   c0.0488,0.0527,0.1087,0.0897,0.1678,0.131c0.0401,0.0281,0.0692,0.0667,0.1143,0.0892c0.0097,0.0048,0.0203,0.0037,0.03,0.0081   c0.0604,0.028,0.1276,0.0367,0.1937,0.0522c0.0647,0.015,0.1271,0.0369,0.1922,0.0388C15.9797,9.9941,15.9889,10,16,10   c0.0513,0,0.0954-0.0217,0.1446-0.0292c0.0703-0.0105,0.1395-0.0166,0.2057-0.0416c0.0616-0.0233,0.1125-0.0602,0.1676-0.0945   c0.0541-0.0334,0.1089-0.0616,0.1563-0.1053c0.053-0.0491,0.0903-0.1093,0.1317-0.1686c0.0279-0.0399,0.0662-0.0687,0.0886-0.1135   c0.6504-1.3008,1.4902-1.4443,2.5527-1.6265c1.6807-0.2876,3.207-0.8086,3.502-3.7271c0.5273,0.1177,0.916,0.3472,1.1602,0.6865   c0.54,0.7495,0.5186,2.1724-0.0576,3.9033c-0.1025,0.3052-0.0508,0.6401,0.1367,0.9009C24.377,9.8457,24.6787,10,25,10   c0.0791,0,1.4805-0.0156,2.7148-1.0439C27.8604,9.8618,28,11.4067,28,14C28,16.3946,27.2746,19.538,26,21.9358z"/></g><g id="Die"/><g id="Die_2"/><g id="ghost"/><g id="impostor"/><g id="pets"/><g id="crewmates"/><g id="Guides"/></svg>