<?xml version="1.0" ?><svg style="enable-background:new 0 0 32 32;" version="1.1" viewBox="0 0 32 32" xml:space="preserve" xmlns="http://www.w3.org/2000/svg" xmlns:xlink="http://www.w3.org/1999/xlink"><style type="text/css">
	.st0{display:none;}
</style><g class="st0" id="etc"/><g id="Hats"/><g id="Crewmates"/><g id="ejection"/><g id="sabotage"/><g id="Die"/><g id="Die_2"/><g id="ghost"/><g id="impostor"><path d="M17.2929,7.2929c0.3905-0.3906,1.0237-0.3906,1.4142,0c0.3906,0.3905,0.3906,1.0237,0,1.4142   c-0.3905,0.3905-1.0237,0.3905-1.4142,0C16.9023,8.3166,16.9023,7.6834,17.2929,7.2929z M15.293,9.293l-1,1   c-0.3906,0.3906-0.3906,1.0234,0,1.4141C14.4883,11.9023,14.7441,12,15,12s0.5117-0.0977,0.707-0.293l1-1   c0.3906-0.3906,0.3906-1.0234,0-1.4141S15.6836,8.9023,15.293,9.293z M27,20v7v1.1733C27,29.7319,25.7319,31,24.1733,31h-2.3467   C20.2681,31,19,29.7319,19,28.1733v-2.1951c-0.3607,0.084-0.6946,0.1289-1,0.1461v2.049C18,29.7319,16.7319,31,15.1733,31h-2.3467   C11.2681,31,10,29.7319,10,28.1733V28v-1v-1H8.8267C7.2681,26,6,24.7319,6,23.1733v-2.7593l-1.707-1.707   c-0.7393-0.7393-0.9141-1.8857-0.4556-2.9922c0.3922-0.9467,1.1291-1.5826,1.9221-1.6922   C4.4821,11.783,4.8584,9.0618,6.8916,6.9414l3.646-3.4854c1.084-1.1323,2.3135-1.7334,3.6235-1.7549   c1.4438-0.0181,2.8379,0.6396,4.2007,1.9707c0.1446,0.1412,0.2191,0.3188,0.2595,0.5025c0.765,0.2061,1.4724,0.5936,2.0471,1.1738   c0.7369,0.7438,1.149,1.6833,1.2728,2.6539c0.0104-0.0001,0.021,0.0031,0.0315,0.0033c0.0399-0.0011,0.0775,0.0085,0.1172,0.0122   c0.03,0.0043,0.0599,0.0023,0.0897,0.0093c0.0157,0.0037,0.0293,0.0124,0.0447,0.0168c0.1758,0.0408,0.3455,0.1122,0.4826,0.2493   c0.188,0.188,0.2804,0.4326,0.2875,0.6788l0.611,1.8329c0.1196,0.3594,0.0264,0.7559-0.2417,1.0234   c-0.1904,0.1904-0.4463,0.293-0.707,0.293c-0.106,0-0.2124-0.0166-0.3164-0.0513l-1.4671-0.489   c-0.0711,0.0829-0.1268,0.1744-0.2048,0.2532l-1.073,1.0832l0.4744,1.4232c0.1196,0.3594,0.0264,0.7559-0.2417,1.0234   c-0.1904,0.1904-0.4463,0.293-0.707,0.293c-0.106,0-0.2124-0.0166-0.3164-0.0513l-1.4971-0.499L13.4141,19h2.9678l0.7236-1.4473   c0.3389-0.6777,1.4502-0.6777,1.7891,0L19.6182,19h1.7637l0.7236-1.4473c0.3389-0.6777,1.4502-0.6777,1.7891,0L24.6182,19H26   C26.5522,19,27,19.4478,27,20z M19.2476,6.7554C18.7651,6.2681,18.124,6,17.4429,6c-0.6816,0-1.3228,0.2681-1.8052,0.7554   l-2.5156,2.5396c-1.0024,1.0122-1.0024,2.6592,0,3.6714c0.8078,0.816,2.1135,0.9389,3.0849,0.3878   c0.0281-0.0375,0.0522-0.0777,0.086-0.1115l1.4141-1.4141c0.0633-0.0635,0.1343-0.1163,0.2101-0.1598l1.6707-1.6707   C20.2307,8.9929,20.1187,7.6349,19.2476,6.7554z M8.2563,14.0088c0.0283,0.0278,0.0552,0.0571,0.0801,0.0884l3.19,3.9623   l2.4443-2.4443c-0.8531-0.1829-1.6385-0.6046-2.2695-1.2417c-1.771-1.7886-1.771-4.6982,0-6.4858l2.5156-2.5396   c0.4869-0.4916,1.0702-0.8421,1.7006-1.0679c-0.6046-0.3831-1.1921-0.5947-1.7231-0.5795   c-0.7568,0.0127-1.5117,0.4063-2.2437,1.1704L8.3042,8.3564C6.6025,10.1323,6.5713,12.3633,8.2563,14.0088z M5.707,17.293   L7.4141,19h2.3024l-2.4573-3.0523C7.1746,15.9709,7.0919,16,7,16H6c-0.0522,0.0342-0.3071,0.3286-0.3901,0.7207   C5.5791,16.8672,5.5503,17.1362,5.707,17.293z M10,24v-3H8v2.1733C8,23.6294,8.3706,24,8.8267,24H10z M25,27v-6h-1h-2h-3h-2h-5v6v1   v0.1733C12,28.6294,12.3706,29,12.8267,29h2.3467C15.6294,29,16,28.6294,16,28.1733V26c0-0.0606,0.0242-0.1133,0.0345-0.171   c-0.0125-0.0058-0.0445-0.0189-0.0487-0.0209c-0.4937-0.2471-0.6943-0.8477-0.4473-1.3418   c0.2446-0.4878,0.8325-0.6904,1.3247-0.4556c0.0898,0.0376,1.4463,0.5796,3.582-0.8428c0.4595-0.3076,1.0801-0.1821,1.3867,0.2773   c0.3062,0.4595,0.1821,1.0806-0.2773,1.3867c-0.1882,0.1254-0.373,0.2387-0.5547,0.3425v2.9988C21,28.6294,21.3706,29,21.8267,29   h2.3467C24.6294,29,25,28.6294,25,28.1733V27z"/></g><g id="pets"/><g id="crewmates"/><g id="Guides"/></svg>