<?xml version="1.0" ?><svg style="enable-background:new 0 0 32 32;" version="1.1" viewBox="0 0 32 32" xml:space="preserve" xmlns="http://www.w3.org/2000/svg" xmlns:xlink="http://www.w3.org/1999/xlink"><style type="text/css">
	.st0{display:none;}
</style><g class="st0" id="etc"/><g id="Hats"/><g id="Crewmates"/><g id="ejection"/><g id="sabotage"/><g id="Die"/><g id="Die_2"/><g id="ghost"/><g id="impostor"/><g id="pets"><path d="M23.0649,12.0065C22.034,9.0948,19.2606,7,16,7s-6.034,2.0948-7.0649,5.0065C4.7622,13.2901,2,15.6868,2,18.5   C2,22.7056,8.1494,26,16,26s14-3.2944,14-7.5C30,15.6868,27.2378,13.2901,23.0649,12.0065z M16,9c3.0327,0,5.5,2.4673,5.5,5.5   c0,1.731-0.6533,3.5-5.5,3.5s-5.5-1.769-5.5-3.5C10.5,11.4673,12.9673,9,16,9z M16,24c-7.1782,0-12-2.8438-12-5.5   c0-1.5608,1.6818-3.1773,4.5128-4.2518C8.5099,14.3325,8.5,14.415,8.5,14.5c0,3.6494,2.5234,5.5,7.5,5.5s7.5-1.8506,7.5-5.5   c0-0.085-0.0099-0.1675-0.0128-0.2518C26.3182,15.3227,28,16.9392,28,18.5C28,21.1563,23.1782,24,16,24z M8,18.5   C8,19.3271,7.3271,20,6.5,20S5,19.3271,5,18.5S5.6729,17,6.5,17S8,17.6729,8,18.5z M13,21.5c0,0.8271-0.6729,1.5-1.5,1.5   S10,22.3271,10,21.5s0.6729-1.5,1.5-1.5S13,20.6729,13,21.5z M22,21.5c0,0.8271-0.6729,1.5-1.5,1.5S19,22.3271,19,21.5   s0.6729-1.5,1.5-1.5S22,20.6729,22,21.5z M27,18.5c0,0.8271-0.6729,1.5-1.5,1.5S24,19.3271,24,18.5s0.6729-1.5,1.5-1.5   S27,17.6729,27,18.5z M18,15c0-0.5523,0.4477-1,1-1s1,0.4477,1,1c0,0.5522-0.4477,1-1,1S18,15.5522,18,15z M13,15   c0-0.5522,0.4478-1,1-1h2c0.5522,0,1,0.4478,1,1s-0.4478,1-1,1h-2C13.4478,16,13,15.5522,13,15z"/></g><g id="crewmates"/><g id="Guides"/></svg>