<?xml version="1.0" ?><svg style="enable-background:new 0 0 32 32;" version="1.1" viewBox="0 0 32 32" xml:space="preserve" xmlns="http://www.w3.org/2000/svg" xmlns:xlink="http://www.w3.org/1999/xlink"><style type="text/css">
	.st0{display:none;}
</style><g class="st0" id="etc"/><g id="Hats"><path d="M18.3682,12H17V9.9743c1.4666-0.0709,3.7736-0.3334,4.707-1.2673C23.9736,6.4404,24,4.0986,24,4c0-0.5522-0.4473-1-1-1   c-0.1318,0-3.2607,0.0127-5.4473,1.1055C16.8648,4.4496,16.3671,4.9606,16,5.5224c-0.3671-0.5618-0.8648-1.0728-1.5527-1.4169   C12.2607,3.0127,9.1318,3,9,3C8.4473,3,8,3.4478,8,4c0,0.0986,0.0264,2.4404,2.293,4.707C11.2264,9.6409,13.5334,9.9034,15,9.9743   V12h-1.3682C9.4238,12,6,15.4233,6,19.6313V29c0,0.5522,0.4473,1,1,1h18c0.5527,0,1-0.4478,1-1v-9.3687   C26,15.4233,22.5762,12,18.3682,12z M18.4473,5.8945c1.0068-0.5034,2.3438-0.7236,3.3076-0.8198   C21.5322,5.6826,21.1055,6.48,20.293,7.293c-0.3008,0.3013-1.6514,0.5732-3.1611,0.6699   C17.2939,7.2231,17.6523,6.292,18.4473,5.8945z M11.707,7.293c-0.8135-0.814-1.2393-1.6118-1.4629-2.2183   c0.9648,0.0962,2.3018,0.3159,3.3086,0.8198c0.7871,0.3931,1.1465,1.3267,1.3105,2.0679   C13.3555,7.8657,12.0078,7.5938,11.707,7.293z M24,28H8v-8.3687C8,16.5264,10.5264,14,13.6318,14h4.7363   C21.4736,14,24,16.5264,24,19.6313V28z M18,16h-4c-2.7568,0-5,2.2432-5,5s2.2432,5,5,5h4c2.7568,0,5-2.2432,5-5S20.7568,16,18,16z    M18,24h-4c-1.6543,0-3-1.3457-3-3s1.3457-3,3-3h4c1.6543,0,3,1.3457,3,3S19.6543,24,18,24z M20,20c0,0.5522-0.4477,1-1,1   s-1-0.4478-1-1c0-0.5523,0.4477-1,1-1S20,19.4477,20,20z M17,20c0,0.5522-0.4473,1-1,1h-2c-0.5527,0-1-0.4478-1-1s0.4473-1,1-1h2   C16.5527,19,17,19.4478,17,20z"/></g><g id="Crewmates"/><g id="ejection"/><g id="sabotage"/><g id="Die"/><g id="Die_2"/><g id="ghost"/><g id="impostor"/><g id="pets"/><g id="crewmates"/><g id="Guides"/></svg>