<?xml version="1.0" ?><svg style="enable-background:new 0 0 32 32;" version="1.1" viewBox="0 0 32 32" xml:space="preserve" xmlns="http://www.w3.org/2000/svg" xmlns:xlink="http://www.w3.org/1999/xlink"><style type="text/css">
	.st0{display:none;}
</style><g class="st0" id="etc"/><g id="knife"/><g id="emergency_meeting"/><g id="Suspicious"/><g id="report"/><g id="killed"/><g id="Die_1_"/><g id="Pets"/><g id="Vent"/><g id="Die_2"><path d="M29,26.5c0,0.8284-0.8954,1.5-2,1.5s-2-0.6716-2-1.5s0.8954-1.5,2-1.5S29,25.6716,29,26.5z M22.5,27   c-0.8284,0-1.5,0.4477-1.5,1c0,0.5522,0.6716,1,1.5,1s1.5-0.4478,1.5-1C24,27.4477,23.3284,27,22.5,27z M27.145,14.1104   c0,2.9241-1.1008,4.4212-2.179,5.3781C24.616,23.6719,19.8387,27,14,27c-6.0654,0-11-3.5889-11-8   c0-2.0281,1.0516-3.8766,2.7681-5.2883C4.9628,11.6728,4.6155,8.316,7.7441,6.439c4.5986-2.7598,10.043-2.7769,12.0483-1.7334   c2.181,1.1348,2.8776,3.1837,3.101,4.3697c0.7875,0.1215,1.926,0.4449,2.8385,1.3251   C26.6694,11.3047,27.145,12.5532,27.145,14.1104z M7.4861,12.5684C9.3121,11.5875,11.5608,11,14,11   c1.6444,0,3.2,0.2712,4.6023,0.7436c0.0226-0.025,0.0333-0.0565,0.0588-0.0795l2.2964-2.0708   c-0.1143-0.749-0.5366-2.3062-2.0879-3.1133c-1.3271-0.6895-6.0952-0.7271-10.0962,1.6738   C6.8196,9.3262,7.0989,11.3668,7.4861,12.5684z M14.6646,22.9365c-0.0127-0.3413-0.1758-0.6528-0.4517-0.8599   c-0.3838-0.2886-0.5083-0.8096-0.2964-1.2407l0.4038-0.8203c0.0718-0.2861-0.0435-0.5913-0.2915-0.7568l-0.1313-0.0869   c-0.3013-0.2017-0.7061-0.1387-0.9404,0.146C11.9829,20.4971,11.2646,21,10.5552,21H10.231c-0.5762,0-1.0786,0.3511-1.1953,0.8345   c-0.1172,0.4878,0.0786,0.8315,0.2056,0.9927c0.2163,0.2744,0.54,0.4316,0.8882,0.4316c0.3467,0,0.5977-0.1597,0.7471-0.2935   c0.1855-0.166,0.4238-0.2549,0.667-0.2549c0.0811,0,0.1621,0.0098,0.2422,0.0298c0.3218,0.0806,0.5825,0.3149,0.6968,0.626   c0.1753,0.4795,0.7017,0.8755,1.3696,0.7031C14.3096,23.9512,14.6455,23.4795,14.6646,22.9365z M16.3378,19.7885   c0.0067,0.3035-0.0352,0.6111-0.1351,0.9108c-0.0032,0.0096-0.008,0.0186-0.0115,0.028C17.8322,20.296,19,19.3977,19,18.5   c0-1.1826-2.0532-2.5-5-2.5s-5,1.3174-5,2.5c0,0.2065,0.0826,0.4141,0.2028,0.6212C9.4583,19.0502,9.7222,19,10,19   c0.0356,0,0.0687,0.0093,0.1039,0.0105c0.0251-0.001,0.0492-0.0058,0.0743-0.0062c0.0834-0.0342,0.1699-0.063,0.2621-0.0737   c0.0898-0.0518,0.3975-0.2627,0.9766-0.9639c0.8901-1.0767,2.4341-1.3062,3.5894-0.5356l0.1309,0.0869   C15.9084,18.0326,16.3431,18.8964,16.3378,19.7885z M23,19c0-3.3086-4.0376-6-9-6c-2.5664,0-4.8795,0.7236-6.5206,1.8764   c-0.0019,0.001-0.0029,0.0029-0.0048,0.004c-0.0004,0.0002-0.0009,0.0003-0.0013,0.0005C5.9448,15.9567,5,17.4047,5,19   c0,1.4573,0.7847,2.7941,2.0854,3.8347c-0.059-0.2558-0.0868-0.5182-0.0803-0.7846C7.0048,22.033,7,22.0172,7,22   c0-0.643,0.2074-1.2359,0.5531-1.7248C7.1952,19.7205,7,19.1165,7,18.5c0-2.5234,3.0747-4.5,7-4.5s7,1.9766,7,4.5   c0,1.8168-1.5834,3.3786-4.0412,4.0925C16.9774,22.727,17,22.8605,17,23c0,0.6668-0.226,1.2773-0.5953,1.7759   C20.2016,24.0722,23,21.7527,23,19z M25.145,14.1104c0-0.9878-0.2666-1.7485-0.792-2.2612   c-0.6284-0.6133-1.5122-0.7847-1.9878-0.8315l-1.7693,1.5954c1.9016,1.0413,3.3234,2.5161,3.9847,4.225   C24.9164,16.2065,25.145,15.351,25.145,14.1104z"/></g><g id="ghost"/><g id="Hats"/><g id="Crewmates"/><g id="ejection"/><g id="sabotage"/><g id="Die"/><g id="impostor"/><g id="pets"/><g id="crewmates"/><g id="Guides"/></svg>