<?xml version="1.0" ?><svg viewBox="0 0 32 32" xmlns="http://www.w3.org/2000/svg"><path d="M23.74 7H18V6a1 1 0 00-1-1h-2a1 1 0 00-1 1v1h-2.764L5.447 4.106a.998.998 0 00-1.295.364c-5.293 8.469-.02 16.036.035 16.111a1 1 0 001.26.314L11.237 18H14a1 1 0 001 1h2a1 1 0 001-1h.995c-.07.707-.544 5.363-.98 7.826-.118.67.068 1.34.525 1.883.658.784 1.854 1.291 3.047 1.291H23c1.654 0 3-1.346 3-3v-8.53c1.767-.85 3-2.642 3-4.73v-.48C29 9.36 26.64 7 23.74 7zM10 16.382l-4.621 2.31c-.978-1.81-3.035-6.778.012-12.379L10 8.618v7.764zM14 16h-2V9h2v7zm10 10a1 1 0 01-1 1h-1.413c-.578 0-1.243-.253-1.515-.576-.108-.13-.095-.205-.088-.25.485-2.733.99-7.86 1.011-8.076.003-.034-.01-.065-.01-.098h2.754c.09 0 .173-.022.261-.026V26zm3-13.26A3.264 3.264 0 0123.74 16H18V9h5.74A3.264 3.264 0 0127 12.26v.48z"/></svg>