<?xml version="1.0" ?><svg viewBox="0 0 32 32" xmlns="http://www.w3.org/2000/svg"><path d="M21.707 21.293l-1-1A1 1 0 0020 20V10c0-5.416-4.472-7.592-6.836-7.986A1.002 1.002 0 0012 3v8a1 1 0 00.293.707l.293.293-.293.293a1 1 0 000 1.414l.293.293-.293.293A1 1 0 0012 15v5a1 1 0 00-.707.293l-1 1A.999.999 0 0011 23h1.97c-.256 1.03-.97 3.997-.97 5 0 1.018 1.412 3 4 3s4-1.982 4-3c0-1.004-.714-3.97-.97-5H21a1 1 0 00.707-1.707zM16 29c-1.297 0-1.894-.835-1.998-1.072.037-.728.58-3.14.968-4.684.02-.082.012-.163.011-.244h2.038c0 .081-.01.162.011.244.39 1.543.931 3.956.968 4.684C17.894 28.165 17.297 29 16 29zm2-9h-4v-4.586l.707-.707a1 1 0 000-1.414L14.414 13l.293-.293a1 1 0 000-1.414L14 10.586V4.32c1.525.58 4 2.078 4 5.679v10z"/></svg>