<?xml version="1.0" ?><svg viewBox="0 0 32 32" xmlns="http://www.w3.org/2000/svg"><path d="M17 6c-2.757 0-5 2.243-5 5 0 1.368.555 2.608 1.448 3.512-.917-.413-1.789-.467-2.601-.142-2.176.872-2.772 4.1-2.833 4.465a1 1 0 001.972.332c.138-.806.71-2.584 1.606-2.94.176-.07.382-.067.607-.022-.025.045-.053.082-.077.129-.693 1.368-.717 3.044-.07 4.982 1.624 4.875-2.855 6.56-3.368 6.735a1 1 0 00.632 1.898c.07-.024 1.74-.591 3.141-1.992 1.142-1.142 2.283-3.02 1.857-5.767 3.274.927 4.722 5.08 4.738 5.128a1.002 1.002 0 001.266.63 1 1 0 00.63-1.265c-.086-.26-2.097-6.081-7.18-6.629-.334-1.356-.149-2.282.194-2.909 1.729 1.02 4.95 2.6 6.557 1.333.89-.701 1.035-1.978.43-3.794a.984.984 0 00-.232-.372A4.96 4.96 0 0022 11c0-2.757-2.243-5-5-5zm2.282 10.906c-.346.239-1.938-.224-3.644-1.118.436.124.887.212 1.362.212.757 0 1.468-.182 2.112-.484.329 1.08.168 1.39.17 1.39zM17 14c-1.654 0-3-1.346-3-3s1.346-3 3-3 3 1.346 3 3-1.346 3-3 3zM15 4c0-1.476 1.616-2 3-2a1 1 0 01.002 2c-.363.002-.817.085-1.018.18A1 1 0 0115 4zm8 1a1 1 0 01-2 0c0-.392-.424-1.005-.71-1.296a1.001 1.001 0 01.007-1.413.998.998 0 011.41.002C21.839 2.425 23 3.626 23 5z"/></svg>