<?xml version="1.0" ?><svg style="enable-background:new 0 0 32 32;" version="1.1" viewBox="0 0 32 32" xml:space="preserve" xmlns="http://www.w3.org/2000/svg" xmlns:xlink="http://www.w3.org/1999/xlink"><style type="text/css">
	.st0{display:none;}
</style><g class="st0" id="etc"/><g id="knife"/><g id="emergency_meeting"><path d="M29.9102,26.5864l-3.5206-7.7451c1.106-0.2832,1.6094-0.899,1.8331-1.4395c0.4824-1.1655-0.0693-2.6631-1.5146-4.1084   l-8.4277-8.4424C17.7178,4.3022,16.9746,4,16.1875,4H9.2783C8.1348,4,7.1064,4.6353,6.5742,5.7012L3.085,13.5957   c-0.1436,0.3257-0.1035,0.7031,0.1055,0.9912C3.2229,14.632,3.3531,14.7988,3.5588,15H3c-0.3262,0-0.6318,0.1592-0.8193,0.4263   c-0.1865,0.2671-0.2324,0.6089-0.1201,0.9155l4,11C6.2041,27.7368,6.5791,28,7,28h22c0.3398,0,0.6563-0.1729,0.8408-0.4585   C30.0244,27.2554,30.0508,26.8955,29.9102,26.5864z M8.3838,6.5527C8.5547,6.2119,8.8975,6,9.2783,6h6.9092   c0.2617,0,0.5098,0.1006,0.6865,0.2734l8.4189,8.4336c0.9688,0.9692,1.1777,1.6978,1.082,1.9292   c-0.0576,0.1377-0.4307,0.3394-1.2256,0.3618c-0.8604-0.5049-3.9346-3.7837-6.3906-6.6489   c-0.0256-0.03-0.0612-0.0436-0.0894-0.0698c-0.0507-0.0471-0.101-0.0894-0.1592-0.1244c-0.0544-0.0327-0.1089-0.0568-0.1676-0.0783   c-0.0616-0.0228-0.1214-0.0408-0.1863-0.0512c-0.0617-0.0098-0.121-0.0115-0.1835-0.0097   c-0.0654,0.0017-0.1276,0.0075-0.1924,0.0223c-0.0638,0.0144-0.1226,0.0379-0.1834,0.0651   c-0.0367,0.0164-0.0762,0.0184-0.1115,0.0396c-0.0256,0.0154-0.0397,0.0406-0.0634,0.0579   c-0.0229,0.0165-0.0505,0.0216-0.0723,0.0403c-0.0301,0.0258-0.0439,0.0613-0.0702,0.0897   c-0.0471,0.0508-0.0895,0.101-0.1246,0.1593c-0.0332,0.0549-0.0573,0.1102-0.0791,0.1694c-0.0223,0.0604-0.04,0.1189-0.0504,0.1824   c-0.0104,0.0638-0.012,0.1251-0.01,0.1898c0.0018,0.0632,0.0075,0.1234,0.0216,0.1859c0.0146,0.0656,0.0386,0.1258,0.0668,0.1881   c0.0161,0.0358,0.018,0.0746,0.0388,0.1092l3.0156,5.0254c0.3223,0.5029,0.4268,0.9395,0.2861,1.1968   C20.3496,17.9097,20.1494,18,20,18c-1.4238,0-3.51-3.6036-4.7173-6.4866l-0.354-0.885c-0.0238-0.0596-0.068-0.1021-0.1014-0.1542   c-0.0367-0.0573-0.0648-0.1215-0.1111-0.1691c-0.0395-0.0403-0.0903-0.0634-0.1354-0.0963   c-0.0595-0.0435-0.1141-0.0931-0.1813-0.1224c-0.0446-0.0194-0.0941-0.0208-0.141-0.0336   c-0.0766-0.021-0.1511-0.0477-0.2316-0.0499c-0.0628-0.0019-0.1248,0.0201-0.1879,0.0303   c-0.0637,0.0105-0.1276,0.0071-0.1904,0.0307c-0.0033,0.0012-0.0053,0.004-0.0085,0.0053c-0.0036,0.0014-0.0074,0.0006-0.011,0.002   c-0.061,0.0245-0.1049,0.0693-0.1581,0.1036c-0.0559,0.036-0.1188,0.063-0.1654,0.1083c-0.0462,0.0448-0.0734,0.1022-0.1098,0.1544   c-0.037,0.0531-0.0823,0.1002-0.1083,0.1592c-0.0265,0.0599-0.0311,0.126-0.0455,0.1902   c-0.0137,0.0611-0.0374,0.1189-0.0394,0.1823c-0.0022,0.0676,0.0205,0.1348,0.0325,0.2029   c0.0105,0.0599,0.0066,0.1199,0.0286,0.1789c0.002,0.0054,0.0056,0.0146,0.0078,0.0202c0.0001,0.0001,0,0.0002,0.0001,0.0003   l0.0013,0.0034c0.0845,0.2245,0.2259,0.5844,0.4097,1.0223l1.6231,4.05c0.3184,0.6357,0.3291,1.0273,0.2344,1.1812   C15.2334,17.7998,14.8193,18,14,18c-1.3467,0-2.5762-3.9531-2.9814-6.9209c-0.0029-0.1821-0.041-0.3501-0.1133-0.5039   c-0.208-0.4448-0.7109-0.6733-1.1826-0.5356c-0.4668,0.1348-0.7676,0.584-0.7168,1.0645   c-0.0557,0.1685-0.3389,0.8148-1.7123,2.1883c-0.0004,0.0004-0.0009,0.0008-0.0013,0.0013   c-0.5173,0.5166-0.9965,0.7596-1.4309,0.7347c-0.2598-0.0176-0.4893-0.1323-0.667-0.2578L8.3838,6.5527z M22,18.9648v2.3409   c-4.3545,1.5688-7.9053,1.7583-10.2988,0.5366C9.7744,20.8594,9.1367,19.2661,9,18.855v-4.4579   c0.1741-0.1814,0.3567-0.3666,0.5078-0.5372C10.1465,16.5229,11.4658,20,14,20c1.8389,0,2.6689-0.7178,3.041-1.3198   c0.0364-0.0588,0.0706-0.1252,0.1041-0.1931C18.0165,19.3837,18.98,20,20,20C20.7906,20,21.5327,19.5936,22,18.9648z M7.7002,26   l-3.2725-9H7v2c0,0.0815,0.0098,0.1631,0.0303,0.2427c0.0283,0.1138,0.7305,2.8062,3.7061,4.3525   c1.3516,0.7021,2.9277,1.0532,4.7217,1.0532c2.2881,0,4.9297-0.5723,7.9014-1.7148C23.7451,22.7847,24,22.4136,24,22v-3.3977   c0.0431,0.0292,0.0795,0.0506,0.119,0.0756L27.4473,26H7.7002z"/></g><g id="Suspicious"/><g id="report"/><g id="killed"/><g id="Die_1_"/><g id="Pets"/><g id="Vent"/><g id="Die_2"/><g id="ghost"/><g id="Hats"/><g id="Crewmates"/><g id="ejection"/><g id="sabotage"/><g id="Die"/><g id="impostor"/><g id="pets"/><g id="crewmates"/><g id="Guides"/></svg>