<?xml version="1.0" ?><svg style="enable-background:new 0 0 32 32;" version="1.1" viewBox="0 0 32 32" xml:space="preserve" xmlns="http://www.w3.org/2000/svg" xmlns:xlink="http://www.w3.org/1999/xlink"><style type="text/css">
	.st0{display:none;}
</style><g class="st0" id="etc"/><g id="knife"/><g id="emergency_meeting"/><g id="Suspicious"/><g id="report"/><g id="killed"/><g id="Die_1_"><path d="M14.7998,14.6001C14.6035,14.8618,14.3032,15,13.999,15c-0.2085,0-0.4189-0.0649-0.5991-0.2002L12,13.7499l-1.3999,1.0499   C10.4199,14.9351,10.2095,15,10.001,15c-0.3042,0-0.6045-0.1382-0.8008-0.3999c-0.3315-0.4419-0.2422-1.0688,0.1997-1.3999   L10.3335,12.5l-0.9336-0.7002c-0.4419-0.3311-0.5313-0.958-0.1997-1.3999c0.3315-0.4404,0.958-0.5322,1.3999-0.1997L12,11.2501   l1.3999-1.0499c0.4429-0.3325,1.0693-0.2407,1.3999,0.1997c0.3315,0.4419,0.2422,1.0688-0.1997,1.3999L13.6665,12.5l0.9336,0.7002   C15.042,13.5313,15.1313,14.1582,14.7998,14.6001z M22.7998,10.3999c-0.3301-0.4404-0.9565-0.5322-1.3999-0.1997L20,11.2501   l-1.3999-1.0499c-0.4429-0.3325-1.0688-0.2407-1.3999,0.1997c-0.3315,0.4419-0.2422,1.0688,0.1997,1.3999L18.3335,12.5   l-0.9336,0.7002c-0.4419,0.3311-0.5313,0.958-0.1997,1.3999C17.3965,14.8618,17.6968,15,18.001,15   c0.2085,0,0.4189-0.0649,0.5991-0.2002L20,13.7499l1.3999,1.0499C21.5801,14.9351,21.7905,15,21.999,15   c0.3042,0,0.6045-0.1382,0.8008-0.3999c0.3315-0.4419,0.2422-1.0688-0.1997-1.3999L21.6665,12.5l0.9336-0.7002   C23.042,11.4688,23.1313,10.8418,22.7998,10.3999z M16.707,16.293c-0.3906-0.3906-1.0234-0.3906-1.4141,0l-1,1   c-0.2861,0.2861-0.3716,0.7158-0.2168,1.0898C14.231,18.7563,14.5957,19,15,19h2c0.4043,0,0.769-0.2437,0.9238-0.6172   c0.1548-0.374,0.0693-0.8037-0.2168-1.0898L16.707,16.293z M29,14c0,3.4204-1.8865,7.7896-6,9.6842V28c0,0.5522-0.4478,1-1,1H10   c-0.5522,0-1-0.4478-1-1v-4.3069C5.2321,22.0382,3,18.8306,3,15C3,9.1016,7.8628,3,16,3C24.5347,3,29,8.5337,29,14z M27,14   c0-4.4727-3.7783-9-11-9C8.4126,5,5,10.8477,5,15c0,3.1973,1.9171,5.7648,5.2582,7.0521C10.6821,22.1682,11,22.5394,11,23v4h2v-4   c0-0.5522,0.4478-1,1-1s1,0.4478,1,1v4h2v-4c0-0.5522,0.4478-1,1-1s1,0.4478,1,1v4h2v-4c0-0.0029,0.0016-0.0051,0.0016-0.008   c0.0009-0.0264,0.0123-0.05,0.0153-0.076c0.0361-0.4116,0.3141-0.7416,0.6971-0.8582C25.3419,20.6574,27,16.9106,27,14z"/></g><g id="Pets"/><g id="Vent"/><g id="Die_2"/><g id="ghost"/><g id="Hats"/><g id="Crewmates"/><g id="ejection"/><g id="sabotage"/><g id="Die"/><g id="impostor"/><g id="pets"/><g id="crewmates"/><g id="Guides"/></svg>