<?xml version="1.0" ?><svg style="enable-background:new 0 0 32 32;" version="1.1" viewBox="0 0 32 32" xml:space="preserve" xmlns="http://www.w3.org/2000/svg" xmlns:xlink="http://www.w3.org/1999/xlink"><style type="text/css">
	.st0{display:none;}
</style><g class="st0" id="etc"/><g id="knife"/><g id="emergency_meeting"/><g id="Suspicious"/><g id="report"/><g id="killed"/><g id="Die_1_"/><g id="Pets"/><g id="Vent"/><g id="Die_2"/><g id="ghost"><path d="M29,11c0-1.424-0.6055-2.703-1.564-3.6146c-0.0118-0.1018-0.0261-0.2043-0.0712-0.3024C26.2261,4.6025,23.728,3,21,3h-4   c-3.8599,0-7,3.1401-7,7H9c-1.6543,0-3,1.3457-3,3v8c0,1.5166,1.1348,2.7605,2.5978,2.9594C8.3992,23.9852,8.1965,24,8,24H7   c-0.9229,0-2-0.2617-2-1c0-0.5522-0.4478-1-1-1s-1,0.4478-1,1c0,3.7944,3.2056,7,7,7h3c1.2061,0,3-0.7988,3-3v-2   c0-0.5513,0.4487-1,1-1s1,0.4487,1,1v2c0,1.6543,1.3457,3,3,3s3-1.3457,3-3v-4c0-0.5513,0.4487-1,1-1s1,0.4487,1,1   c0,0.5522,0.4478,1,1,1s1-0.4478,1-1v-9c0-0.0088-0.0048-0.0161-0.005-0.0248C28.6179,13.1413,29,12.1183,29,11z M8,21v-8   c0-0.5513,0.4487-1,1-1h1v9v1H9C8.4487,22,8,21.5513,8,21z M26,20.1843C25.6857,20.0722,25.3524,20,25,20c-1.6543,0-3,1.3457-3,3v4   c0,0.5513-0.4487,1-1,1s-1-0.4487-1-1v-2c0-1.6543-1.3457-3-3-3s-3,1.3457-3,3v2c0,0.8052-0.5503,0.9883-1,1h-3   c-1.6261,0-3.0895-0.8332-4.0091-2.0778C6.3024,25.9709,6.6362,26,7,26h1c2.7632,0,4-1.5068,4-3v-2V11v-1c0-2.7568,2.2432-5,5-5h4   c1.0934,0,2.1282,0.3705,2.9759,1H20c-2.7568,0-5,2.2432-5,5s2.2432,5,5,5h4c0.7118,0,1.3864-0.1545,2-0.4238V20.1843z M24,14h-4   c-1.6543,0-3-1.3457-3-3s1.3457-3,3-3h4c1.6543,0,3,1.3457,3,3S25.6543,14,24,14z M26,10c0,0.5522-0.4477,1-1,1s-1-0.4478-1-1   c0-0.5523,0.4477-1,1-1S26,9.4477,26,10z M23,10c0,0.5522-0.4478,1-1,1h-2c-0.5522,0-1-0.4478-1-1s0.4478-1,1-1h2   C22.5522,9,23,9.4478,23,10z"/></g><g id="Hats"/><g id="Crewmates"/><g id="ejection"/><g id="sabotage"/><g id="Die"/><g id="impostor"/><g id="pets"/><g id="crewmates"/><g id="Guides"/></svg>